<?xml version="1.0" standalone="no"?>
<!DOCTYPE svg PUBLIC "-//W3C//DTD SVG 20010904//EN"
        "http://www.w3.org/TR/2001/REC-SVG-20010904/DTD/svg10.dtd">
<svg version="1.0" xmlns="http://www.w3.org/2000/svg"
     width="300.000000pt" height="300.000000pt" viewBox="0 0 300.000000 300.000000"
     preserveAspectRatio="xMidYMid meet">
    <g transform="translate(-100.000000,400.000000) scale(0.100000,-0.100000)"
       fill="#2e6b32" stroke="none">
        <path d="M2429 3972 c-47 -50 -69 -102 -69 -165 0 -44 8 -70 46 -143 45 -87
46 -91 42 -166 -5 -86 5 -99 38 -50 58 85 59 147 4 256 -35 69 -40 87 -40 147
0 44 6 81 17 104 26 54 5 63 -38 17z"/>
        <path d="M2228 3838 c-36 -51 -31 -126 11 -202 30 -53 33 -65 27 -113 -8 -66
9 -70 47 -11 22 35 23 130 2 148 -8 7 -15 18 -15 25 0 7 -7 18 -15 25 -11 9
-15 32 -15 81 0 37 -4 70 -9 74 -5 3 -20 -9 -33 -27z"/>
        <path d="M2591 3826 c-31 -50 -28 -113 9 -176 24 -41 30 -62 30 -110 0 -32 4
-61 8 -64 5 -3 20 9 33 27 30 40 34 143 8 173 -37 42 -51 86 -45 136 8 59 -11
66 -43 14z"/>
        <path d="M2200 3380 c-265 -8 -378 -32 -403 -88 -10 -22 -3 -115 22 -277 9
-58 35 -154 49 -181 5 -11 24 -49 42 -86 31 -66 40 -78 98 -143 131 -147 339
-203 578 -157 80 16 177 67 242 127 44 41 67 55 89 55 49 0 169 36 220 66 50
29 153 128 153 147 0 6 6 18 13 26 23 28 47 105 47 154 0 107 -103 207 -214
207 -42 0 -46 3 -68 41 -45 81 -127 100 -448 108 -124 3 -313 4 -420 1z m568
-89 c91 -5 147 -12 155 -20 23 -24 -20 -37 -182 -56 -271 -30 -753 -7 -799 38
-9 9 -12 20 -8 24 18 18 580 28 834 14z m409 -200 c40 -29 43 -131 5 -189 -40
-64 -109 -117 -166 -127 -42 -8 -43 -6 -17 72 24 75 51 194 51 226 0 14 8 31
18 36 21 13 80 3 109 -18z m-1181 -188 c3 -10 10 -25 15 -33 5 -8 15 -28 22
-45 24 -51 146 -195 166 -195 6 0 11 -7 11 -15 0 -8 -2 -15 -5 -15 -15 0 -116
83 -142 117 -42 53 -93 151 -93 179 0 28 18 32 26 7z"/>
    </g>
</svg>
