<?xml version="1.0" standalone="no"?>
<!DOCTYPE svg PUBLIC "-//W3C//DTD SVG 20010904//EN"
        "http://www.w3.org/TR/2001/REC-SVG-20010904/DTD/svg10.dtd">
<svg version="1.0" xmlns="http://www.w3.org/2000/svg"
     width="900.000000pt" height="350.000000pt" viewBox="0 0 900.000000 100.000000"
     preserveAspectRatio="xMidYMid meet">
    <g transform="translate(0.000000,300.000000) scale(0.100000,-0.100000)"
       fill="#2e6b32" stroke="none">
        <path d="M3843 4029 c-10 -10 -13 -107 -13 -415 l0 -403 22 -15 c18 -13 53
-16 178 -16 162 0 282 16 337 44 41 21 88 70 108 111 22 47 20 147 -4 194 -19
37 -79 91 -100 91 -20 0 -12 21 19 52 110 110 63 290 -91 344 -44 15 -90 19
-249 22 -148 2 -198 0 -207 -9z m384 -183 c23 -20 28 -32 27 -66 -1 -23 -8
-48 -16 -57 -26 -26 -83 -39 -144 -33 l-59 5 -3 74 c-2 41 -1 80 2 88 4 9 28
13 85 13 70 0 83 -3 108 -24z m44 -335 c26 -32 26 -104 -1 -131 -27 -27 -51
-31 -150 -28 l-85 3 -6 75 c-8 113 -8 113 118 108 96 -3 107 -6 124 -27z"/>
        <path d="M4630 4031 c-13 -9 -15 -68 -18 -410 -3 -391 -2 -401 18 -421 16 -16
33 -20 83 -20 94 1 96 4 99 156 l3 129 59 3 c65 3 65 3 114 -87 111 -204 109
-202 221 -199 100 4 106 15 55 97 -21 34 -47 74 -56 89 -80 126 -79 114 -11
179 33 32 63 67 66 78 26 94 29 128 17 188 -22 104 -74 162 -184 204 -50 19
-441 30 -466 14z m427 -203 c27 -26 33 -40 33 -72 0 -46 -26 -93 -62 -112 -14
-8 -59 -13 -114 -14 -75 0 -93 3 -98 16 -8 21 -8 199 1 207 3 4 51 7 107 7 99
0 100 0 133 -32z"/>
        <path d="M5473 4032 c-10 -6 -13 -105 -13 -416 -1 -381 0 -409 17 -422 14 -10
74 -13 274 -14 309 0 302 -2 297 100 l-3 65 -190 5 -190 5 -3 87 -3 88 163 2
163 3 3 54 c6 105 15 100 -166 103 l-157 3 -3 83 -3 82 185 0 c213 0 206 -3
206 94 0 89 10 86 -298 86 -147 0 -273 -4 -279 -8z"/>
        <path d="M6171 4027 c-8 -10 -7 -28 5 -68 8 -30 19 -70 23 -89 4 -19 12 -51
18 -70 6 -19 18 -60 26 -90 8 -30 23 -82 32 -115 37 -127 43 -150 91 -320 23
-83 39 -95 129 -95 84 0 111 15 125 70 5 19 16 58 24 85 9 28 22 73 30 100 9
28 25 82 36 120 12 39 24 83 28 99 16 63 38 34 77 -99 9 -33 23 -78 30 -100 6
-22 20 -67 30 -100 50 -172 53 -175 153 -175 80 0 103 15 120 75 7 28 18 64
24 80 5 17 14 46 18 65 8 32 26 97 66 235 8 28 19 66 24 85 5 19 18 67 30 105
20 67 31 107 46 169 9 39 -6 46 -103 46 -96 0 -105 -7 -122 -100 -10 -58 -24
-119 -46 -210 -22 -93 -44 -194 -47 -218 -7 -57 -34 -11 -72 121 -9 31 -23 83
-32 115 -9 31 -23 77 -29 102 -37 131 -50 166 -64 178 -8 7 -43 12 -83 12 -73
0 -87 -10 -102 -70 -4 -14 -13 -49 -21 -77 -8 -29 -22 -79 -31 -110 -8 -32
-21 -78 -29 -103 -7 -25 -21 -74 -30 -110 -10 -36 -19 -71 -21 -78 -11 -38
-36 27 -69 183 -9 44 -23 103 -30 130 -7 28 -21 86 -32 129 -10 44 -24 85 -31
93 -19 18 -175 18 -191 0z"/>
        <path d="M2429 3972 c-47 -50 -69 -102 -69 -165 0 -44 8 -70 46 -143 45 -87
46 -91 42 -166 -5 -86 5 -99 38 -50 58 85 59 147 4 256 -35 69 -40 87 -40 147
0 44 6 81 17 104 26 54 5 63 -38 17z"/>
        <path d="M2228 3838 c-36 -51 -31 -126 11 -202 30 -53 33 -65 27 -113 -8 -66
9 -70 47 -11 22 35 23 130 2 148 -8 7 -15 18 -15 25 0 7 -7 18 -15 25 -11 9
-15 32 -15 81 0 37 -4 70 -9 74 -5 3 -20 -9 -33 -27z"/>
        <path d="M2591 3826 c-31 -50 -28 -113 9 -176 24 -41 30 -62 30 -110 0 -32 4
-61 8 -64 5 -3 20 9 33 27 30 40 34 143 8 173 -37 42 -51 86 -45 136 8 59 -11
66 -43 14z"/>
        <path d="M2200 3380 c-265 -8 -378 -32 -403 -88 -10 -22 -3 -115 22 -277 9
-58 35 -154 49 -181 5 -11 24 -49 42 -86 31 -66 40 -78 98 -143 131 -147 339
-203 578 -157 80 16 177 67 242 127 44 41 67 55 89 55 49 0 169 36 220 66 50
29 153 128 153 147 0 6 6 18 13 26 23 28 47 105 47 154 0 107 -103 207 -214
207 -42 0 -46 3 -68 41 -45 81 -127 100 -448 108 -124 3 -313 4 -420 1z m568
-89 c91 -5 147 -12 155 -20 23 -24 -20 -37 -182 -56 -271 -30 -753 -7 -799 38
-9 9 -12 20 -8 24 18 18 580 28 834 14z m409 -200 c40 -29 43 -131 5 -189 -40
-64 -109 -117 -166 -127 -42 -8 -43 -6 -17 72 24 75 51 194 51 226 0 14 8 31
18 36 21 13 80 3 109 -18z m-1181 -188 c3 -10 10 -25 15 -33 5 -8 15 -28 22
-45 24 -51 146 -195 166 -195 6 0 11 -7 11 -15 0 -8 -2 -15 -5 -15 -15 0 -116
83 -142 117 -42 53 -93 151 -93 179 0 28 18 32 26 7z"/>
        <path d="M3858 2973 c-10 -2 -20 -14 -23 -26 -3 -12 -4 -188 -3 -392 l3 -370
212 -3 c194 -2 216 -1 265 19 65 25 103 60 129 118 42 96 4 227 -73 254 -24 9
-23 49 2 65 29 18 60 86 60 133 0 22 -8 57 -17 77 -48 104 -128 132 -378 130
-88 0 -168 -2 -177 -5z m316 -154 c30 -7 47 -18 55 -35 16 -36 13 -76 -8 -103
-16 -21 -26 -23 -102 -24 -46 -1 -90 2 -96 6 -9 5 -13 33 -13 78 0 63 2 71 23
79 31 12 90 12 141 -1z m69 -333 c40 -37 44 -70 13 -111 -33 -42 -48 -47 -156
-43 l-85 3 -3 74 c-2 41 -1 80 2 88 4 10 31 13 104 13 91 0 101 -2 125 -24z"/>
        <path d="M4596 2964 c-14 -13 -16 -52 -16 -268 0 -229 2 -259 21 -320 23 -74
76 -140 139 -172 63 -32 168 -44 252 -30 142 25 222 92 253 210 11 43 15 119
15 310 0 295 3 286 -94 286 -102 0 -96 17 -97 -278 -1 -141 -4 -268 -8 -282
-4 -13 -26 -39 -50 -57 -56 -43 -117 -45 -175 -5 -60 41 -64 64 -65 340 -1
147 -5 251 -11 263 -9 16 -22 19 -80 19 -49 0 -73 -4 -84 -16z"/>
        <path d="M5407 2968 c-16 -12 -17 -45 -15 -398 l3 -385 205 0 205 0 68 33
c117 57 186 144 213 272 17 80 17 119 0 190 -20 81 -40 120 -84 171 -50 56
-122 95 -216 114 -91 19 -354 21 -379 3z m390 -179 c23 -11 57 -39 75 -62 32
-40 33 -43 33 -142 -1 -82 -4 -105 -20 -130 -31 -47 -77 -84 -115 -95 -50 -14
-173 -13 -188 2 -13 13 -18 401 -6 432 10 26 165 22 221 -5z"/>
        <path d="M6211 2966 c-8 -9 -10 -122 -9 -397 l3 -384 174 -3 c154 -2 183 0
242 18 124 39 202 111 249 230 19 47 21 71 18 165 -3 96 -7 117 -31 166 -55
114 -133 174 -264 204 -87 20 -365 21 -382 1z m382 -175 c51 -26 65 -39 93
-83 21 -32 24 -50 24 -128 0 -79 -3 -95 -25 -130 -14 -22 -44 -52 -67 -67 -38
-26 -49 -28 -137 -28 l-96 0 -3 215 c-1 118 0 220 2 227 9 22 164 17 209 -6z"/>
        <path d="M6893 2964 c-5 -15 16 -64 55 -126 9 -15 60 -98 112 -184 l95 -158 5
-156 5 -155 85 0 85 0 5 160 c5 166 8 179 60 260 19 31 50 85 83 145 10 19 27
49 38 65 10 17 22 37 26 45 3 8 18 33 31 54 23 38 24 40 6 53 -25 19 -144 17
-171 -2 -13 -9 -50 -70 -83 -137 -62 -125 -76 -148 -91 -148 -5 0 -36 57 -69
126 -81 168 -88 174 -190 174 -64 0 -82 -3 -87 -16z"/>
    </g>
</svg>
